<svg width="1020" height="262" viewBox="0 0 1020 262" fill="none" xmlns="http://www.w3.org/2000/svg">
<g clip-path="url(#clip0_0_3)">
<path d="M203.635 217.943V44.37L128.475 0.976L53.315 44.37V218.05L128.475 261.337L203.635 217.943Z" fill="#005A9E"/>
<path d="M53.315 44.37L128.475 87.763L203.635 44.37L128.475 0.976L53.315 44.37Z" fill="#2B88D8"/>
<path d="M128.475 261.443V87.763L53.315 44.37V218.05L128.475 261.443Z" fill="url(#paint0_linear_0_3)"/>
<path d="M128.475 87.763L203.635 131.157L128.475 174.55V87.763Z" fill="#106EBE"/>
<path d="M128.475 174.55L203.635 217.944L128.475 261.337V174.55Z" fill="#106EBE"/>
<path d="M318.669 49.1264H293.63V124H279.166V49.1264H254.188V36.85H318.669V49.1264ZM370.388 96.7125H327.968C328.13 102.466 329.892 106.902 333.255 110.022C336.658 113.142 341.318 114.702 347.233 114.702C353.878 114.702 359.975 112.716 365.526 108.746V120.11C359.854 123.676 352.358 125.459 343.039 125.459C333.883 125.459 326.691 122.643 321.465 117.011C316.279 111.339 313.686 103.377 313.686 93.1268C313.686 83.4435 316.542 75.5631 322.255 69.4857C328.008 63.3678 335.139 60.3088 343.647 60.3088C352.156 60.3088 358.739 63.0437 363.399 68.5133C368.058 73.983 370.388 81.5797 370.388 91.3036V96.7125ZM356.774 86.7455C356.734 81.681 355.539 77.751 353.189 74.9554C350.839 72.1192 347.598 70.7012 343.465 70.7012C339.413 70.7012 335.969 72.18 333.133 75.1377C330.338 78.0954 328.616 81.9646 327.968 86.7455H356.774ZM431.587 124H417.913V114.276H417.67C413.375 121.731 407.075 125.459 398.769 125.459C392.651 125.459 387.85 123.797 384.366 120.475C380.922 117.153 379.2 112.757 379.2 107.287C379.2 95.5375 385.966 88.6903 399.499 86.7455L417.974 84.1322C417.974 75.2592 413.76 70.8227 405.333 70.8227C397.918 70.8227 391.233 73.3752 385.277 78.4803V66.1431C391.841 62.2536 399.418 60.3088 408.007 60.3088C423.727 60.3088 431.587 68.0474 431.587 83.5245V124ZM417.974 93.4307L404.907 95.2539C400.856 95.7806 397.797 96.7732 395.731 98.2318C393.705 99.6499 392.692 102.162 392.692 105.768C392.692 108.401 393.624 110.569 395.487 112.271C397.392 113.932 399.924 114.762 403.084 114.762C407.379 114.762 410.924 113.263 413.72 110.265C416.556 107.226 417.974 103.418 417.974 98.8396V93.4307ZM541.892 124H527.793V90.0881C527.793 83.565 526.861 78.8449 524.997 75.9277C523.174 73.0106 520.074 71.552 515.699 71.552C512.012 71.552 508.872 73.3955 506.279 77.0825C503.726 80.7694 502.45 85.1857 502.45 90.3312V124H488.289V88.9334C488.289 77.3458 484.197 71.552 476.013 71.552C472.205 71.552 469.065 73.2942 466.593 76.7786C464.162 80.263 462.947 84.7805 462.947 90.3312V124H448.847V61.7674H462.947V71.6128H463.19C467.687 64.0768 474.23 60.3088 482.82 60.3088C487.114 60.3088 490.862 61.504 494.063 63.8945C497.304 66.2444 499.512 69.3439 500.687 73.1929C505.306 64.6035 512.194 60.3088 521.35 60.3088C535.045 60.3088 541.892 68.7564 541.892 85.6516V124ZM555.202 122.055V108.989C560.469 113 566.283 115.005 572.644 115.005C581.152 115.005 585.406 112.493 585.406 107.469C585.406 106.051 585.042 104.856 584.312 103.884C583.583 102.871 582.59 101.98 581.334 101.21C580.119 100.44 578.66 99.7512 576.959 99.1434C575.298 98.5357 573.434 97.8469 571.368 97.0771C568.815 96.0642 566.506 94.9905 564.439 93.8561C562.413 92.7216 560.712 91.4454 559.334 90.0273C557.997 88.5687 556.984 86.9278 556.296 85.1046C555.607 83.2814 555.262 81.1543 555.262 78.7234C555.262 75.7252 555.971 73.0916 557.389 70.8227C558.808 68.5133 560.712 66.5888 563.102 65.0492C565.493 63.4691 568.207 62.2941 571.246 61.5243C574.285 60.714 577.425 60.3088 580.666 60.3088C586.419 60.3088 591.565 61.1799 596.103 62.9221V75.2592C591.727 72.261 586.703 70.762 581.031 70.762C579.248 70.762 577.627 70.9443 576.169 71.3089C574.751 71.6736 573.535 72.18 572.522 72.8283C571.509 73.4765 570.719 74.2666 570.152 75.1985C569.585 76.0898 569.301 77.0825 569.301 78.1764C569.301 79.5134 569.585 80.6479 570.152 81.5797C570.719 82.5116 571.55 83.3422 572.644 84.0715C573.778 84.7602 575.115 85.4085 576.655 86.0162C578.235 86.5835 580.038 87.2115 582.064 87.9002C584.738 88.9942 587.128 90.1084 589.235 91.2428C591.382 92.3772 593.206 93.6738 594.705 95.1323C596.204 96.5504 597.359 98.2116 598.169 100.116C598.979 101.98 599.384 104.208 599.384 106.801C599.384 109.961 598.655 112.716 597.196 115.066C595.738 117.416 593.793 119.361 591.362 120.901C588.931 122.44 586.115 123.575 582.915 124.304C579.754 125.074 576.412 125.459 572.887 125.459C566.08 125.459 560.185 124.324 555.202 122.055ZM715.706 88.7511C715.706 113.223 704.118 125.459 680.943 125.459C658.74 125.459 647.639 113.689 647.639 90.1489V36.85H662.103V87.1709C662.103 104.269 668.748 112.818 682.037 112.818C694.84 112.818 701.242 104.573 701.242 88.0826V36.85H715.706V88.7511ZM751.016 124H736.126V36.85H751.016V124ZM323.531 236.354C316.967 239.757 308.803 241.459 299.039 241.459C286.398 241.459 276.269 237.468 268.652 229.486C261.035 221.504 257.227 211.031 257.227 198.066C257.227 184.128 261.501 172.865 270.05 164.276C278.639 155.686 289.477 151.391 302.564 151.391C310.991 151.391 317.98 152.587 323.531 154.977V169.32C317.656 165.835 311.174 164.093 304.083 164.093C294.643 164.093 286.986 167.112 281.111 173.149C275.276 179.185 272.359 187.248 272.359 197.337C272.359 206.939 275.094 214.596 280.564 220.309C286.033 225.981 293.225 228.818 302.139 228.818C310.363 228.818 317.494 226.873 323.531 222.983V236.354ZM366.073 241.459C356.471 241.459 348.793 238.562 343.039 232.768C337.327 226.934 334.47 219.215 334.47 209.613C334.47 199.16 337.448 190.996 343.404 185.121C349.401 179.246 357.463 176.309 367.592 176.309C377.316 176.309 384.893 179.165 390.322 184.878C395.751 190.591 398.465 198.512 398.465 208.641C398.465 218.567 395.528 226.528 389.653 232.525C383.819 238.481 375.959 241.459 366.073 241.459ZM366.741 187.552C361.231 187.552 356.876 189.477 353.675 193.326C350.474 197.175 348.874 202.482 348.874 209.248C348.874 215.771 350.494 220.917 353.736 224.685C356.977 228.412 361.312 230.276 366.741 230.276C372.292 230.276 376.546 228.433 379.504 224.746C382.502 221.059 384.001 215.812 384.001 209.005C384.001 202.158 382.502 196.871 379.504 193.143C376.546 189.416 372.292 187.552 366.741 187.552ZM505.914 240H491.814V206.088C491.814 199.565 490.882 194.845 489.019 191.928C487.195 189.011 484.096 187.552 479.72 187.552C476.033 187.552 472.893 189.395 470.3 193.082C467.748 196.769 466.472 201.186 466.472 206.331V240H452.311V204.933C452.311 193.346 448.219 187.552 440.035 187.552C436.226 187.552 433.086 189.294 430.615 192.779C428.184 196.263 426.968 200.78 426.968 206.331V240H412.869V177.767H426.968V187.613H427.212C431.709 180.077 438.252 176.309 446.842 176.309C451.136 176.309 454.884 177.504 458.085 179.894C461.326 182.244 463.534 185.344 464.709 189.193C469.328 180.604 476.216 176.309 485.372 176.309C499.067 176.309 505.914 184.756 505.914 201.652V240ZM537.456 230.823H537.212V268.625H523.113V177.767H537.212V188.707H537.456C542.277 180.441 549.327 176.309 558.605 176.309C566.506 176.309 572.664 179.084 577.08 184.635C581.496 190.186 583.705 197.641 583.705 207C583.705 217.372 581.213 225.678 576.229 231.917C571.246 238.157 564.439 241.276 555.809 241.276C547.868 241.276 541.75 237.792 537.456 230.823ZM537.091 206.27V213.989C537.091 218.527 538.529 222.376 541.406 225.536C544.323 228.696 548.01 230.276 552.467 230.276C557.693 230.276 561.785 228.25 564.743 224.199C567.741 220.107 569.24 214.414 569.24 207.121C569.24 201.003 567.843 196.222 565.047 192.779C562.292 189.294 558.544 187.552 553.804 187.552C548.78 187.552 544.728 189.335 541.649 192.9C538.61 196.466 537.091 200.922 537.091 206.27ZM625.699 241.459C616.097 241.459 608.419 238.562 602.666 232.768C596.953 226.934 594.097 219.215 594.097 209.613C594.097 199.16 597.075 190.996 603.031 185.121C609.027 179.246 617.09 176.309 627.219 176.309C636.943 176.309 644.519 179.165 649.948 184.878C655.377 190.591 658.092 198.512 658.092 208.641C658.092 218.567 655.155 226.528 649.28 232.525C643.445 238.481 635.585 241.459 625.699 241.459ZM626.368 187.552C620.858 187.552 616.502 189.477 613.302 193.326C610.101 197.175 608.5 202.482 608.5 209.248C608.5 215.771 610.121 220.917 613.362 224.685C616.604 228.412 620.939 230.276 626.368 230.276C631.919 230.276 636.173 228.433 639.131 224.746C642.129 221.059 643.628 215.812 643.628 209.005C643.628 202.158 642.129 196.871 639.131 193.143C636.173 189.416 631.919 187.552 626.368 187.552ZM727.921 240H713.822V204.933C713.822 193.305 709.709 187.491 701.485 187.491C697.19 187.491 693.645 189.112 690.849 192.353C688.054 195.554 686.656 199.606 686.656 204.508V240H672.495V177.767H686.656V188.099H686.899C691.558 180.239 698.284 176.309 707.076 176.309C713.842 176.309 719.008 178.517 722.573 182.933C726.139 187.309 727.921 193.65 727.921 201.955V240ZM797.872 212.712H755.452C755.614 218.466 757.377 222.902 760.739 226.022C764.143 229.142 768.802 230.702 774.717 230.702C781.362 230.702 787.46 228.716 793.01 224.746V236.11C787.338 239.676 779.843 241.459 770.524 241.459C761.367 241.459 754.176 238.643 748.949 233.011C743.763 227.339 741.17 219.377 741.17 209.127C741.17 199.443 744.027 191.563 749.739 185.486C755.493 179.368 762.623 176.309 771.132 176.309C779.64 176.309 786.224 179.044 790.883 184.513C795.543 189.983 797.872 197.58 797.872 207.304V212.712ZM784.259 202.746C784.218 197.681 783.023 193.751 780.673 190.955C778.323 188.119 775.082 186.701 770.949 186.701C766.898 186.701 763.454 188.18 760.618 191.138C757.822 194.095 756.1 197.965 755.452 202.746H784.259ZM866.729 240H852.63V204.933C852.63 193.305 848.517 187.491 840.293 187.491C835.998 187.491 832.453 189.112 829.657 192.353C826.861 195.554 825.464 199.606 825.464 204.508V240H811.303V177.767H825.464V188.099H825.707C830.366 180.239 837.092 176.309 845.884 176.309C852.65 176.309 857.816 178.517 861.381 182.933C864.947 187.309 866.729 193.65 866.729 201.955V240ZM916.807 239.331C914.052 240.709 910.426 241.398 905.928 241.398C893.855 241.398 887.818 235.604 887.818 224.016V188.828H877.425V177.767H887.818V163.364L901.917 159.353V177.767H916.807V188.828H901.917V219.945C901.917 223.632 902.586 226.265 903.923 227.845C905.26 229.425 907.488 230.215 910.608 230.215C912.999 230.215 915.065 229.527 916.807 228.149V239.331ZM925.072 238.055V224.989C930.339 229 936.153 231.005 942.514 231.005C951.023 231.005 955.277 228.493 955.277 223.469C955.277 222.051 954.912 220.856 954.183 219.884C953.454 218.871 952.461 217.98 951.205 217.21C949.99 216.44 948.531 215.751 946.829 215.143C945.168 214.536 943.305 213.847 941.238 213.077C938.686 212.064 936.376 210.991 934.31 209.856C932.284 208.722 930.582 207.445 929.205 206.027C927.868 204.569 926.855 202.928 926.166 201.105C925.477 199.281 925.133 197.154 925.133 194.723C925.133 191.725 925.842 189.092 927.26 186.823C928.678 184.513 930.582 182.589 932.973 181.049C935.363 179.469 938.078 178.294 941.117 177.524C944.155 176.714 947.295 176.309 950.537 176.309C956.29 176.309 961.435 177.18 965.973 178.922V191.259C961.598 188.261 956.574 186.762 950.901 186.762C949.119 186.762 947.498 186.944 946.039 187.309C944.621 187.674 943.406 188.18 942.393 188.828C941.38 189.477 940.59 190.267 940.023 191.198C939.455 192.09 939.172 193.082 939.172 194.176C939.172 195.513 939.455 196.648 940.023 197.58C940.59 198.512 941.421 199.342 942.514 200.071C943.649 200.76 944.986 201.408 946.526 202.016C948.106 202.583 949.909 203.211 951.934 203.9C954.608 204.994 956.999 206.108 959.106 207.243C961.253 208.377 963.076 209.674 964.575 211.132C966.075 212.55 967.229 214.212 968.04 216.116C968.85 217.98 969.255 220.208 969.255 222.801C969.255 225.961 968.526 228.716 967.067 231.066C965.609 233.416 963.664 235.361 961.233 236.901C958.802 238.44 955.986 239.575 952.785 240.304C949.625 241.074 946.282 241.459 942.758 241.459C935.951 241.459 930.056 240.324 925.072 238.055Z" fill="black"/>
</g>
<defs>
<linearGradient id="paint0_linear_0_3" x1="54.797" y1="213.758" x2="127.597" y2="91.0363" gradientUnits="userSpaceOnUse">
<stop stop-color="#0A80BC"/>
<stop offset="0.08964" stop-color="#0E83C1"/>
<stop offset="0.65417" stop-color="#2590D9"/>
<stop offset="1" stop-color="#2D95E2"/>
</linearGradient>
<clipPath id="clip0_0_3">
<rect width="1020" height="262" fill="white"/>
</clipPath>
</defs>
</svg>
